# xmcd CD database file
#
# Track frame offsets:
#	182
#	19345
#	32032
#	47122
#	59530
#	73045
#	89490
#	106992
#	124507
#	134090
#
# Disc length: 1924 seconds
#
# Revision: 0
# Processed by: cddbd v1.5.2PL0 Copyright (c) Steve Scherf et al.
# Submitted via: CDex 1.74
#
DISCID=9207820a
DTITLE=Baldknobbers - The Ultimate
DYEAR=1994
DGENRE=Country
TTITLE0=I Can't Stop Loving You
TTITLE1=Crazy
TTITLE2=I Don't Need Your Rockin' Chair
TTITLE3=Blue Eyes Crying In The Rain
TTITLE4=Midnight In Old Amarillo/Caravan
TTITLE5=I Will Always Love You
TTITLE6=Roses And Love Songs
TTITLE7=The Blue T The Gray
TTITLE8=Rockin' The Country
TTITLE9=Hey Good Lookin'
EXTD=YEAR: 1994
EXTT0=
EXTT1=
EXTT2=
EXTT3=
EXTT4=
EXTT5=
EXTT6=
EXTT7=
EXTT8=
EXTT9=
PLAYORDER=
